<svg width="64" height="64" viewBox="0 0 64 64" fill="none" xmlns="http://www.w3.org/2000/svg">
<g clip-path="url(#clip0_130_21)">
<path d="M63.125 55.3375L50.6625 42.875C50.1 42.3125 49.3375 42 48.5375 42H46.5C49.95 37.5875 52 32.0375 52 26C52 11.6375 40.3625 0 26 0C11.6375 0 0 11.6375 0 26C0 40.3625 11.6375 52 26 52C32.0375 52 37.5875 49.95 42 46.5V48.5375C42 49.3375 42.3125 50.1 42.875 50.6625L55.3375 63.125C56.5125 64.3 58.4125 64.3 59.575 63.125L63.1125 59.5875C64.2875 58.4125 64.2875 56.5125 63.125 55.3375ZM26 42C17.1625 42 10 34.85 10 26C10 17.1625 17.15 10 26 10C34.8375 10 42 17.15 42 26C42 34.8375 34.85 42 26 42Z" fill="black"/>
</g>
<defs>
<clipPath id="clip0_130_21">
<rect width="64" height="64" fill="white"/>
</clipPath>
</defs>
</svg>
